<?xml version="1.0" encoding="utf-8"?>
<!-- Uploaded to SVGRepo https://www.svgrepo.com -->
<svg version="1.2" baseProfile="tiny" id="Layer_1" xmlns="http://www.w3.org/2000/svg" xmlns:xlink="http://www.w3.org/1999/xlink"
	 x="0px" y="0px" viewBox="-67 69 120 120" xml:space="preserve">
<path d="M-7,70.7c-32.2,0-58.3,26.1-58.3,58.3s26.1,58.3,58.3,58.3s58.3-26.1,58.3-58.3S25.2,70.7-7,70.7z M-7,181.4
	c-28.9,0-52.4-23.5-52.4-52.4c0-11.5,3.8-22.2,10.1-30.8c1.6-0.9,2.7-2.4,5-1.9c0,0.4,0.3,1.2,0.3,1.4c1.1-0.2,1.7-1.2,2-2.4
	c1.7,1.7-0.1,4.4-0.7,6.1c5.9,0.8,3.9-3.3,4.7-6.8c0.7-3.1,6.1-4.4,5.2-8.3c-1.7-0.3-3.3,0.1-4.9,0.9c-0.1-0.2-0.1-0.4-0.1-0.7
	c1.9-1.3,3.8-2.5,5.8-3.7c3.4-0.1,4.1,3,0.6,4.3c-1.2,3.9,3.5,1.7,4.7,1.2c1.4-0.7,1.2-0.9,3-1.2c1.6-0.3,2.8,0.2,4.2-0.6
	c-1.3,4.2-6.6,4.2-8.9,7.4c-3.3,4.8,5.2,3.3,7.9,1.1c1.7-1.4,2.2-3.8,3.8-4.9c1.9-1.3,4.5-0.3,5-2.9c0.1-0.6-1.7-4.1-1.8-4.5
	c-1-2.4-2.3-2.1,0-4.9c-0.6,0.1-1.2-0.1-1.8-0.1c0-0.2,0-0.4,0-0.7c2.8-0.4,5.6-0.8,8.6-0.8c2.7,0,5.4,0.2,8,0.6
	c1.9,1.2,3.3,3.1,5.1,4.9c5.2,5.1-2.7,3.5-2.1,7.2c0.3,2.1,2.9,1,1.1,4.2c-1,1.8-3.4,2.1-3,4.3c-4.1,0.7-6.4-2.7-10.5-1.1
	c-2,0.8-4.2,2-4.7,3.9c-0.7,3.3,2,3,4.1,4.7c1.8,1.4,1.6,1.4,1.1,4.4c-0.4,2.7-0.3,3.8-2.9,4.8c-1.2,0.4-2.8,0.2-3.9,0.9
	c-0.3,0.2-0.7,1.8-1.2,2.2c-1.4,1-5.6,0.6-4.5,3.7c1.6,0.2,2.5-0.7,3.9-0.7c3-0.1,1.4,0.4,3.4,2c2.2,1.7,5.4,1.9,8.1,3
	c1.3,0.6,2.2,1.6,3.8,1.4c0.4,2.5-1.7,3.1-3.7,3.7c-3,0.9-3.9,0.7-5.6-2c-2.2-3.3-2.7-2.3-6.9-2.8c-1.8-0.1-6.6-0.7-7.8-2.1
	c-1.4-1.8,0.3-4.3,1.8-5.3c2.4-1.7,3-1.3,4.4-3.7c1.8-2.7,1.8-1.8,4.3-2.9c2.1-0.9,3.8-2.3,3.7-4.8c-1.4-0.3-2.1-1.6-2.1-2.9
	l-2.5-0.9c0.2,1.1,3.5,9.4-1.2,7.1c-1.8-0.9,0-8.9-4.9-7.3c0.2,2.3-0.6,2.7-2.2,4c-2.3,2-2.4,0-1.7,3c0.6,2,2,1.7,1.2,4.3
	c-0.4,1.7-2.9,1.8-0.7,4c-1.1,0.2-2.2,0.1-3.1-0.3c-2.7,2.7-1.2,3.5-2.3,6.9c-1.1,3.5-5.6,4.5-8,7c-4.1,4.3-5.2,15.4,0.6,18.6
	c4.5,2.5,9,0.1,13.5,1.8c3,1.1,3.9,2.9,4.3,5.8c0.4,3.3,3.3,5.2,3.8,9.2c0.3,3.3,0.1,5.5,2.3,8.1c1.1,1.2,3.3,3.3,4.9,4
	c2.7,1.1,3.5-0.1,5.8-1.2c0.8-0.3,2.1-0.6,2.9-0.9c2-1,1.1-0.2,2.2-1.9c1.1-1.6,1.6-3.5,3-5.1c1.9-1.9,2.5-2.5,3.5-5
	c0.8-1.9,0.9-3.9,1.7-6c0.8-2,2.8-3.8,3.9-5.5c1.2-1.8,1.6-4.2,3-5.8c-1.8,0.1-5,0.8-6.8,0.2c-2-0.7-2.4-2.9-3.8-4.5
	c-2.2-2.9-6.1-7.3-5.9-11.4c1.4-0.2,5.6,7.4,6.5,8.9c3,4.4,5,3.1,8.9,1.3c1.9-0.9,9.6-5.3,6.4-8.1c-2.1-1.8-10.5,2.9-9.6-2.3
	c3.4-0.1,7.5-0.3,10.9-1c1.7-0.3,3-1.3,4.7-1.1c0.3,0,1,1.6,1.6,1.8c0.9,0.3,2.4,0,3.4,0c0.2,2.4,3.3,9.3,6.5,8.5
	c0.2-5.3,0-10.2,1.3-15.3c1.3-0.2,2.7-0.1,4.1-0.1c0.1,1.3,0.1,2.7,0.1,4.1C45.4,157.9,21.9,181.4-7,181.4z"/>
</svg>
