<?xml version="1.0" encoding="iso-8859-1"?>
<!-- Generator: Adobe Illustrator 18.0.0, SVG Export Plug-In . SVG Version: 6.00 Build 0)  -->
<!DOCTYPE svg PUBLIC "-//W3C//DTD SVG 1.1//EN" "http://www.w3.org/Graphics/SVG/1.1/DTD/svg11.dtd">
<svg version="1.1" id="Capa_1" xmlns="http://www.w3.org/2000/svg" xmlns:xlink="http://www.w3.org/1999/xlink" x="0px" y="0px"
	 viewBox="0 0 288.199 288.199" style="enable-background:new 0 0 288.199 288.199;" xml:space="preserve">
<g>
	<path d="M203.325,9.256c-22.523,0-43.653,8.941-59.226,24.104C128.527,18.196,107.397,9.256,84.874,9.256
		C38.074,9.256,0,47.33,0,94.129c0,37.746,13.758,71.201,43.299,105.288c23.655,27.295,87.03,70.171,89.717,71.983L144,278.809
		v0.134l0.1-0.067l0.1,0.067v-0.134l10.984-7.409c2.687-1.813,66.062-44.688,89.717-71.983
		c29.541-34.087,43.299-67.542,43.299-105.288C288.199,47.33,250.125,9.256,203.325,9.256z M214.673,173.22
		c-13.887,16.025-49.144,42.159-70.573,57.227c-21.43-15.068-56.686-41.203-70.573-57.227C50.653,146.827,40,121.695,40,94.129
		c0-24.743,20.131-44.873,44.874-44.873c17.736,0,31.308,6.595,45.492,21.881c4.708,5.074,12.32,15.429,13.634,17.227v0.273
		c0,0,0.034-0.047,0.1-0.137c0.065,0.089,0.1,0.137,0.1,0.137v-0.273c1.314-1.798,8.925-12.153,13.634-17.227
		c14.185-15.286,27.756-21.881,45.492-21.881c24.743,0,44.874,20.13,44.874,44.873C248.199,121.695,237.546,146.827,214.673,173.22z
		"/>
</g>
<g>
</g>
<g>
</g>
<g>
</g>
<g>
</g>
<g>
</g>
<g>
</g>
<g>
</g>
<g>
</g>
<g>
</g>
<g>
</g>
<g>
</g>
<g>
</g>
<g>
</g>
<g>
</g>
<g>
</g>
</svg>
