<?xml version="1.0" encoding="iso-8859-1"?>
<!-- Generator: Adobe Illustrator 19.0.0, SVG Export Plug-In . SVG Version: 6.00 Build 0)  -->
<svg version="1.1" id="Layer_1" xmlns="http://www.w3.org/2000/svg" xmlns:xlink="http://www.w3.org/1999/xlink" x="0px" y="0px"
	 viewBox="0 0 290.031 290.031" style="enable-background:new 0 0 290.031 290.031;" xml:space="preserve">
<path id="XMLID_127_" d="M4.393,209.682l61.339-61.339c5.858-5.857,15.355-5.858,21.213,0l30.445,30.445l61.354-61.353L148.3,86.99
	c-2.814-2.813-4.393-6.628-4.393-10.606c0-3.979,1.58-7.794,4.393-10.607l61.366-61.363c5.857-5.858,15.355-5.858,21.213,0
	L271.867,45.4c18.739,18.738,23.154,48.49,12.433,83.775c-9.738,32.053-31.143,65.745-60.269,94.871
	c-40.689,40.688-90.591,65.964-130.233,65.964c-19.814,0-36.556-6.268-48.402-18.115c-0.592-0.591-41.001-41.001-41.001-41.001
	C-1.464,225.037-1.464,215.54,4.393,209.682z M66.595,250.67c6.199,6.198,15.351,9.341,27.202,9.341
	c31.492,0,74.285-22.444,109.02-57.178c25.703-25.703,44.447-54.959,52.778-82.379c7.242-23.835,5.441-43.459-4.941-53.841
	l-30.382-30.381l-40.152,40.15l30.445,30.445c2.813,2.813,4.394,6.628,4.394,10.606c0,3.979-1.581,7.794-4.394,10.607
	l-82.567,82.565c-5.857,5.857-15.355,5.857-21.213,0l-30.445-30.445l-40.126,40.126C48.223,232.299,66.193,250.269,66.595,250.67z"
	/>
<g>
</g>
<g>
</g>
<g>
</g>
<g>
</g>
<g>
</g>
<g>
</g>
<g>
</g>
<g>
</g>
<g>
</g>
<g>
</g>
<g>
</g>
<g>
</g>
<g>
</g>
<g>
</g>
<g>
</g>
</svg>
