<?xml version="1.0" encoding="utf-8"?>
<!-- Svg Vector Icons : http://www.onlinewebfonts.com/icon -->
<!DOCTYPE svg PUBLIC "-//W3C//DTD SVG 1.1//EN" "http://www.w3.org/Graphics/SVG/1.1/DTD/svg11.dtd">
<svg version="1.1" xmlns="http://www.w3.org/2000/svg" xmlns:xlink="http://www.w3.org/1999/xlink" x="0px" y="0px" viewBox="0 0 1000 1000" enable-background="new 0 0 1000 1000" xml:space="preserve">
<metadata> Svg Vector Icons : http://www.onlinewebfonts.com/icon </metadata>
<g><path d="M940.1,385.1l-20.7-2c-19.9-60.7-60.5-114.7-115.4-156.6c20.4-48.6,67-85.9,15.2-92.1c-47.1,2.4-88.1,17-120.3,33.7c-54-20.9-114.4-32.7-178.2-32.7c-197.5,0-362.6,112.1-402.9,261.8c-1.4-0.3-2.8-0.5-4.4-0.9c-9.7-2-23.8-5.2-39.7-11c-2.4-0.9-4.8-1.8-7.2-2.8c2.4-6.8,4.2-13.9,5-21.5c1.2-12.3,0-26.6-9.3-38.4C57.5,316.9,50,312,41.1,312c-8.9-0.1-16.7,5.1-21.3,11c-2.4,3-4.1,6-5.7,9.4c-1.3,2.9-2.6,6.3-3.3,10c-1.6,7.2-0.7,15.3,2,21.9c5.7,13.5,15.7,21.7,24.7,28.2c3.9,2.8,7.9,5.1,11.8,7.3c-7.7,16.6-17.7,31.2-27.1,43.1c-11,13.8-8.9,16,3.3,2.9c10.4-11.3,21.6-25.3,31-42.1c2.7,1.3,5.3,2.7,7.9,3.8c17.1,7.7,31.8,12.2,42.2,15.2c1.9,0.5,3.5,1,5.1,1.4c-2.4,14.5-3.7,29.2-3.7,44.2c0,97.8,52.2,185.7,135.2,246.6v93.8c0,31.3,25.6,56.9,57,56.9h28.5c31.3,0,56.9-25.6,56.9-56.9V783c42.3,11.8,87.6,18.3,134.9,18.3c23.6,0,46.7-1.6,69.2-4.7v12.1c0,31.3,25.6,57,57,57h28.5c31.3,0,57-25.6,57-57v-54.6c82.7-40,146.6-102.7,178.5-177.5l29.5-2.9c27.4,0,49.8-18.6,49.8-41.3v-106C990,403.7,967.5,385.1,940.1,385.1z M30.6,356.6c-1.8-3.5-2.5-7.1-2-11.2c0.2-2,0.8-4,1.7-6.5c0.6-1.9,1.7-4.1,2.8-5.7c2.4-3.4,5.3-5.4,8.4-5.7c3.1-0.4,6.9,1.2,10,4.5c6.3,6.5,8.9,17.7,8.5,28.3c-0.2,6.1-1.2,12.2-2.8,18.2c-2.6-1.3-5.2-2.6-7.8-4.1C41.6,369.6,34,363.6,30.6,356.6z M627,212.8c-2,6-7.5,9.7-13.5,9.7c-1.5,0-3-0.2-4.5-0.7c-110.6-36.9-199.1-0.8-200-0.4c-7.2,3-15.6-0.4-18.6-7.6c-3-7.2,0.3-15.6,7.6-18.6c4-1.7,98.9-40.8,220.1-0.4C625.5,197.3,629.5,205.3,627,212.8z M771.9,356c-9.8,0-17.8-8-17.8-17.8c0-9.8,8-17.8,17.8-17.8c9.8,0,17.8,8,17.8,17.8C789.8,348.1,781.7,356,771.9,356z"/></g>
</svg>