<?xml version="1.0" encoding="iso-8859-1"?>
<!-- Generator: Adobe Illustrator 17.1.0, SVG Export Plug-In . SVG Version: 6.00 Build 0)  -->
<!DOCTYPE svg PUBLIC "-//W3C//DTD SVG 1.1//EN" "http://www.w3.org/Graphics/SVG/1.1/DTD/svg11.dtd">
<svg version="1.1" id="Capa_1" xmlns="http://www.w3.org/2000/svg" xmlns:xlink="http://www.w3.org/1999/xlink" x="0px" y="0px"
	 viewBox="0 0 202.541 202.541" style="enable-background:new 0 0 202.541 202.541;" xml:space="preserve">
<path d="M202.482,51.982c-1.07,25.305-10.387,63.51-48.689,101.813c-38.304,38.303-76.508,47.619-101.813,48.69
	c-0.877,0.037-1.751,0.056-2.625,0.056c-0.001,0-0.002,0-0.003,0c-16.634,0-32.289-6.496-44.083-18.289
	c-7.017-7.017-7.017-18.434,0-25.451l29.421-29.421c3.399-3.399,7.918-5.271,12.726-5.271c4.807,0,9.326,1.872,12.725,5.271
	l11.699,11.699c0.764,0.055,1.727,0.099,2.859,0.099c9.159,0,27.25-2.726,45.5-20.976c21.063-21.063,21.394-41.879,20.896-48.34
	l-11.718-11.718c-7.017-7.017-7.017-18.434-0.001-25.45l29.422-29.422C162.196,1.872,166.715,0,171.523,0s9.326,1.872,12.726,5.271
	C196.569,17.593,203.216,34.619,202.482,51.982z"/>
<g>
</g>
<g>
</g>
<g>
</g>
<g>
</g>
<g>
</g>
<g>
</g>
<g>
</g>
<g>
</g>
<g>
</g>
<g>
</g>
<g>
</g>
<g>
</g>
<g>
</g>
<g>
</g>
<g>
</g>
</svg>
