<?xml version="1.0" encoding="iso-8859-1"?>
<!-- Generator: Adobe Illustrator 19.0.0, SVG Export Plug-In . SVG Version: 6.00 Build 0)  -->
<svg version="1.1" id="Layer_1" xmlns="http://www.w3.org/2000/svg" xmlns:xlink="http://www.w3.org/1999/xlink" x="0px" y="0px"
	 viewBox="0 0 343.229 343.229" style="enable-background:new 0 0 343.229 343.229;" xml:space="preserve">
<path id="XMLID_337_" d="M338.391,51.679h-0.004H203.453c-1.365,0-2.666,0.576-3.583,1.586c-0.917,1.011-1.366,2.36-1.235,3.72
	l2.631,27.279c0.23,2.381,2.164,4.237,4.553,4.368l28.189,1.551l-54.123,75.097L120.863,47.691l42.611-1.629
	c2.577-0.098,4.623-2.196,4.656-4.774l0.311-24.396c0.015-1.295-0.487-2.542-1.396-3.463c-0.909-0.92-2.149-1.439-3.444-1.439H4.84
	C2.166,11.99,0,14.156,0,16.831V44.02c0,2.646,2.125,4.802,4.77,4.84l44.859,0.646l85.309,150.49l-0.381,93.989l-59.314,2.434
	c-2.559,0.104-4.592,2.185-4.641,4.744l-0.48,25.143c-0.025,1.3,0.475,2.554,1.387,3.483c0.909,0.927,2.153,1.449,3.453,1.449
	h185.533c1.328,0,2.598-0.545,3.512-1.508c0.914-0.962,1.393-2.258,1.323-3.584l-1.296-24.892c-0.129-2.475-2.105-4.452-4.582-4.581
	l-51.031-2.676l-7.429-91.552l91.61-110.384l37.299-1.696c2.053-0.095,3.824-1.476,4.416-3.445l8.654-28.838
	c0.166-0.489,0.258-1.016,0.258-1.563C343.229,53.847,341.065,51.679,338.391,51.679z"/>
<g>
</g>
<g>
</g>
<g>
</g>
<g>
</g>
<g>
</g>
<g>
</g>
<g>
</g>
<g>
</g>
<g>
</g>
<g>
</g>
<g>
</g>
<g>
</g>
<g>
</g>
<g>
</g>
<g>
</g>
</svg>
