<?xml version="1.0" encoding="iso-8859-1"?>
<!-- Generator: Adobe Illustrator 19.0.0, SVG Export Plug-In . SVG Version: 6.00 Build 0)  -->
<svg version="1.1" id="Layer_1" xmlns="http://www.w3.org/2000/svg" xmlns:xlink="http://www.w3.org/1999/xlink" x="0px" y="0px"
	 viewBox="0 0 512.001 512.001" style="enable-background:new 0 0 512.001 512.001;" xml:space="preserve">
<path style="fill:#E0BD2C;" d="M337.62,318.565h158.46c1.499,0,2.882-0.797,3.633-2.093c0.749-1.298,0.752-2.896,0.005-4.195
	L338.868,32.443c-0.747-1.301-2.135-2.105-3.638-2.105H176.77c-1.499,0-2.882,0.797-3.633,2.095
	c-0.749,1.296-0.752,2.894-0.005,4.193l160.849,279.832C334.73,317.761,336.12,318.565,337.62,318.565z"/>
<path style="fill:#78B86D;" d="M240.956,207.27l-81.62-139.902c-0.752-1.293-2.134-2.082-3.624-2.082c-0.01,0-0.02,0-0.03,0
	c-1.502,0.01-2.886,0.823-3.624,2.132L0.543,335.498c-0.725,1.283-0.724,2.85,0.002,4.133l79.227,139.904
	c0.742,1.311,2.134,2.125,3.639,2.129c0.005,0,0.008,0,0.013,0c1.504,0,2.892-0.804,3.639-2.107l153.907-268.082
	C241.719,210.171,241.714,208.568,240.956,207.27z"/>
<path style="fill:#436EAB;" d="M507.804,333.368H202.384c-1.511,0-2.904,0.811-3.651,2.125l-79.343,139.904
	c-0.737,1.298-0.729,2.892,0.025,4.182c0.75,1.291,2.134,2.083,3.626,2.083h305.419c1.511,0,2.904-0.811,3.651-2.125l79.345-139.905
	c0.735-1.298,0.729-2.892-0.025-4.182C510.68,334.162,509.298,333.368,507.804,333.368z"/>
<g>
</g>
<g>
</g>
<g>
</g>
<g>
</g>
<g>
</g>
<g>
</g>
<g>
</g>
<g>
</g>
<g>
</g>
<g>
</g>
<g>
</g>
<g>
</g>
<g>
</g>
<g>
</g>
<g>
</g>
</svg>
