<?xml version="1.0" encoding="iso-8859-1"?>
<!-- Generator: Adobe Illustrator 19.0.0, SVG Export Plug-In . SVG Version: 6.00 Build 0)  -->
<svg version="1.1" id="Layer_1" xmlns="http://www.w3.org/2000/svg" xmlns:xlink="http://www.w3.org/1999/xlink" x="0px" y="0px"
	 viewBox="0 0 512 512" style="enable-background:new 0 0 512 512;" xml:space="preserve">
<g>
	<g>
		<path d="M256,111.863c-79.477,0-144.136,64.659-144.136,144.136S176.523,400.136,256,400.136s144.136-64.659,144.136-144.136
			S335.477,111.863,256,111.863z"/>
	</g>
</g>
<g>
	<g>
		<path d="M307.165,51.501L271.732,7.524c-8.093-10.044-23.4-10.02-31.473,0l-35.432,43.979c-7.002,8.691-5.633,21.413,3.058,28.415
			c8.694,7.004,21.413,5.632,28.416-3.058l19.694-24.446L275.69,76.86c7.004,8.694,19.725,10.059,28.416,3.058
			C312.796,72.916,314.166,60.193,307.165,51.501z"/>
	</g>
</g>
<g>
	<g>
		<path d="M304.113,432.082c-8.697-7.006-21.416-5.633-28.416,3.058l-19.694,24.446l-19.694-24.447
			c-7.002-8.69-19.724-10.06-28.416-3.058c-8.69,7.002-10.06,19.725-3.058,28.416l35.432,43.979c8.093,10.044,23.4,10.02,31.473,0
			l35.432-43.979C314.173,451.806,312.804,439.083,304.113,432.082z"/>
	</g>
</g>
<g>
	<g>
		<path d="M147.578,75.219l-56.151-6.044c-12.803-1.377-23.635,9.435-22.255,22.257l6.042,56.151
			c1.194,11.092,11.151,19.122,22.257,17.931c11.096-1.195,19.124-11.159,17.931-22.257l-3.36-31.211l31.211,3.36
			c11.087,1.198,21.062-6.833,22.257-17.931C166.704,86.379,158.675,76.414,147.578,75.219z"/>
	</g>
</g>
<g>
	<g>
		<path d="M442.827,420.569l-6.042-56.152c-1.195-11.096-11.15-19.128-22.257-17.931c-11.096,1.195-19.124,11.159-17.931,22.257
			l3.36,31.211l-31.211-3.36c-11.101-1.198-21.062,6.833-22.257,17.931c-1.195,11.096,6.833,21.062,17.931,22.257
			c60.624,6.526,56.756,6.16,58.315,6.16C434.712,442.941,444.115,432.541,442.827,420.569z"/>
	</g>
</g>
<g>
	<g>
		<path d="M76.859,275.697l-24.446-19.694l24.447-19.694c8.69-7.002,10.06-19.725,3.058-28.416c-7-8.69-19.724-10.06-28.416-3.058
			L7.524,240.267c-10.044,8.093-10.02,23.401,0,31.473l43.979,35.432c8.698,7.007,21.416,5.628,28.415-3.058
			C86.919,295.423,85.55,282.699,76.859,275.697z"/>
	</g>
</g>
<g>
	<g>
		<path d="M504.475,240.259l-43.979-35.432c-8.697-7.006-21.415-5.632-28.416,3.058c-7.002,8.691-5.633,21.415,3.058,28.416
			l24.446,19.694l-24.446,19.694c-8.69,7.002-10.06,19.725-3.058,28.416c7.004,8.694,19.725,10.059,28.416,3.058l43.979-35.432
			C514.52,263.639,514.496,248.333,504.475,240.259z"/>
	</g>
</g>
<g>
	<g>
		<path d="M165.511,414.528c-1.194-11.097-11.134-19.111-22.255-17.929l-31.211,3.36l3.36-31.211
			c1.195-11.096-6.833-21.062-17.931-22.257c-11.101-1.2-21.062,6.833-22.257,17.931l-6.044,56.151
			c-1.285,11.954,8.094,22.371,20.092,22.371c0.718,0,1.442-0.038,2.164-0.116l56.151-6.044
			C158.677,435.59,166.705,425.626,165.511,414.528z"/>
	</g>
</g>
<g>
	<g>
		<path d="M420.568,69.169l-56.151,6.044c-11.096,1.195-19.124,11.159-17.931,22.257c1.195,11.099,11.15,19.118,22.257,17.931
			l31.211-3.36l-3.36,31.211c-1.284,11.922,8.046,22.373,20.119,22.373c10.191,0,18.952-7.686,20.069-18.048l6.044-56.151
			C444.207,78.576,433.337,67.793,420.568,69.169z"/>
	</g>
</g>
<g>
</g>
<g>
</g>
<g>
</g>
<g>
</g>
<g>
</g>
<g>
</g>
<g>
</g>
<g>
</g>
<g>
</g>
<g>
</g>
<g>
</g>
<g>
</g>
<g>
</g>
<g>
</g>
<g>
</g>
</svg>
