<?xml version="1.0" standalone="no"?>
<!DOCTYPE svg PUBLIC "-//W3C//DTD SVG 20010904//EN"
 "http://www.w3.org/TR/2001/REC-SVG-20010904/DTD/svg10.dtd">
<svg version="1.0" xmlns="http://www.w3.org/2000/svg"
 width="1280.000000pt" height="1280.000000pt" viewBox="0 0 1280.000000 1280.000000"
 preserveAspectRatio="xMidYMid meet">
<g transform="translate(0.000000,1280.000000) scale(0.100000,-0.100000)"
fill="#000000" stroke="none">
<path d="M6455 11390 c-16 -3 -1209 -652 -2650 -1442 -1441 -789 -2660 -1454
-2708 -1476 -203 -95 -357 -250 -467 -471 -85 -169 -123 -341 -123 -556 0
-350 117 -632 351 -844 l76 -69 -85 -84 c-227 -221 -342 -507 -342 -853 0
-168 16 -273 63 -411 57 -168 141 -296 279 -426 45 -42 81 -78 81 -81 0 -2
-42 -46 -93 -98 -223 -225 -330 -498 -330 -839 0 -336 100 -597 308 -805 157
-157 315 -237 574 -290 64 -13 1358 -297 2876 -630 1518 -334 2779 -607 2803
-607 31 0 64 12 125 45 169 91 5013 2820 5038 2838 37 26 59 78 59 137 0 125
-134 201 -251 142 -22 -12 -1148 -645 -2502 -1407 -1354 -762 -2473 -1390
-2487 -1395 -20 -8 -411 75 -1805 381 -979 216 -2232 491 -2785 611 -553 121
-1041 229 -1085 240 -307 78 -494 310 -524 648 -31 352 122 675 378 799 129
63 122 63 776 -80 3464 -762 5041 -1107 5066 -1107 16 0 52 11 79 25 127 64
5068 2850 5088 2869 41 37 55 74 50 136 -5 69 -35 115 -92 141 -60 27 -96 23
-178 -19 -40 -21 -1175 -659 -2523 -1417 -1347 -759 -2459 -1379 -2470 -1378
-16 1 -5420 1184 -5655 1238 -157 36 -308 142 -399 281 -142 217 -165 555 -54
818 85 204 260 359 434 388 63 10 78 7 1431 -291 752 -166 1384 -301 1404
-301 108 0 192 125 153 227 -11 30 -53 79 -81 94 -14 8 -1980 443 -2618 580
-301 64 -322 70 -395 104 -231 106 -369 318 -394 603 -31 350 122 675 375 798
39 18 84 34 99 34 25 0 886 -184 4415 -941 904 -194 1317 -279 1345 -276 25 2
83 29 155 69 63 36 1209 681 2545 1433 1337 752 2441 1377 2453 1388 41 38 55
75 50 137 -5 64 -32 111 -79 135 -16 9 -365 89 -776 180 -2605 572 -4892 1073
-4918 1077 -16 3 -43 2 -60 -2z"/>
<path d="M12005 8261 c-38 -21 -1163 -654 -2500 -1406 -1337 -752 -2441 -1372
-2455 -1378 -19 -7 -152 19 -595 116 -703 155 -636 143 -690 122 -138 -52
-151 -238 -23 -304 49 -25 1258 -293 1324 -294 23 0 59 9 81 20 22 12 957 537
2079 1168 2980 1677 2976 1675 3005 1696 60 43 79 157 36 220 -61 90 -147 103
-262 40z"/>
<path d="M4620 5939 c0 -873 1 -921 18 -917 9 3 98 55 197 117 98 61 187 111
195 111 9 0 113 -106 230 -235 118 -129 217 -235 222 -235 12 0 10 1927 -2
1935 -10 6 -820 144 -847 145 -10 0 -13 -191 -13 -921z"/>
</g>
</svg>
