<svg id="Capa_1" enable-background="new 0 0 512 512" height="512" viewBox="0 0 512 512" width="512" xmlns="http://www.w3.org/2000/svg"><g><path d="m280.273 23.581c-123.483-.36-224.62 95.584-232.59 216.967h-32.332c-11.799 0-19.174 12.773-13.274 22.992l36.01 62.371 36.01 62.37c5.9 10.219 20.649 10.219 26.549 0l36.01-62.37 36.01-62.371c5.9-10.219-1.475-22.992-13.274-22.992h-38.331c7.879-81.456 77.365-145.163 161.159-143.8 84.8 1.379 154.149 69.84 156.569 154.617 2.567 89.931-69.844 163.909-159.207 163.909-22.917 0-44.717-4.868-64.425-13.622-17.097-7.594-37.166-1.044-46.52 15.158-10.835 18.767-3.133 42.889 16.67 51.69 28.813 12.804 60.712 19.92 94.275 19.92 128.198 0 232.154-103.792 232.419-231.928.265-128.709-103.019-232.535-231.728-232.911z"/><path d="m340 245.975h-17.58c-4.527-12.762-14.657-22.885-27.42-27.412v-18.263c0-8.284-6.716-15-15-15s-15 6.716-15 15v18.255c-17.459 6.192-30 22.865-30 42.42 0 24.813 20.186 45 45 45 .092 0 .182-.013.273-.016v.009c19.436-.117 35.983-12.618 42.147-29.993h17.58c8.284 0 15-6.716 15-15 0-8.285-6.716-15-15-15zm-59.727 29.986c-.092.002-.181.014-.273.014-8.272 0-15-6.729-15-15 0-8.272 6.728-15 15-15 .092 0 .182.012.273.014 8.145.148 14.727 6.807 14.727 14.986s-6.582 14.838-14.727 14.986z"/></g></svg>