<svg height="512pt" viewBox="-2 0 512 512" width="512pt" xmlns="http://www.w3.org/2000/svg"><path d="m45.390625 363.96875c-10.210937 4.234375-21.90625-.625-26.132813-10.820312-12.777343-30.828126-19.257812-63.511719-19.257812-97.148438 0-140.394531 113.652344-253.933594 254-253.933594 59.765625 0 119.546875 20.886719 167.804688 63.375v-45.441406c0-11.046875 8.957031-20 20-20 11.046874 0 20 8.953125 20 20v95.402344c.601562 11.421875-8.640626 21.089844-20 21.089844h-96.519532c-11.046875 0-20-8.953126-20-20 0-11.046876 8.953125-20 20-20h51.285156c-37.949218-33.902344-87.601562-54.425782-142.570312-54.425782-118.289062 0-214 95.699219-214 213.933594 0 28.351562 5.453125 55.886719 16.210938 81.832031 4.226562 10.207031-.613282 21.90625-10.820313 26.136719zm443.351563-205.117188c-4.230469-10.207031-15.929688-15.046874-26.132813-10.820312-10.207031 4.230469-15.046875 15.933594-10.820313 26.136719 10.757813 25.945312 16.210938 53.480469 16.210938 81.832031 0 118.234375-95.710938 213.933594-214 213.933594-54.96875 0-104.621094-20.523438-142.570312-54.425782h51.285156c11.046875 0 20-8.957031 20-20 0-11.046874-8.953125-20-20-20h-96.519532c-11.335937 0-20.605468 9.578126-20 21.089844v95.402344c0 11.046875 8.953126 20 20 20 11.042969 0 20-8.953125 20-20v-45.441406c48.257813 42.488281 108.039063 63.375 167.804688 63.375 140.347656 0 254-113.539063 254-253.933594 0-33.636719-6.480469-66.320312-19.257812-97.148438zm0 0"/></svg>