<?xml version="1.0" encoding="iso-8859-1"?>
<!-- Generator: Adobe Illustrator 18.1.1, SVG Export Plug-In . SVG Version: 6.00 Build 0)  -->
<svg version="1.1" id="Capa_1" xmlns="http://www.w3.org/2000/svg" xmlns:xlink="http://www.w3.org/1999/xlink" x="0px" y="0px"
	 viewBox="0 0 422.216 422.216" style="enable-background:new 0 0 422.216 422.216;" xml:space="preserve">
<g>
	<g>
		<path style="fill:#010002;" d="M211.114,422.213c-12.757,0-23.134-10.37-23.134-23.128v-66.304
			c-16.624-3.168-32.513-9.774-46.506-19.315l-46.917,46.912c-8.73,8.741-23.963,8.753-32.704,0
			c-4.368-4.38-6.772-10.185-6.772-16.355c0-6.17,2.405-11.982,6.772-16.349l46.906-46.912
			c-9.553-14.022-16.152-29.924-19.309-46.524H23.134C10.376,234.238,0,223.868,0,211.111s10.376-23.134,23.134-23.134h66.316
			c3.162-16.618,9.756-32.513,19.297-46.512L61.829,94.548c-4.374-4.398-6.778-10.203-6.778-16.355
			c0-6.152,2.405-11.958,6.772-16.343c8.789-8.765,23.939-8.759,32.716-0.018l46.918,46.923
			c14.01-9.541,29.912-16.146,46.518-19.315v-66.31c0-12.757,10.376-23.128,23.134-23.128c12.745,0,23.11,10.376,23.11,23.128
			v66.298c16.618,3.162,32.519,9.762,46.548,19.321l46.912-46.912c8.735-8.741,23.963-8.747,32.704,0
			c4.368,4.362,6.778,10.174,6.778,16.355c0,6.182-2.405,11.987-6.778,16.355l-46.912,46.917c9.547,14.004,16.14,29.9,19.303,46.506
			h66.31c12.757,0,23.134,10.376,23.134,23.134s-10.376,23.128-23.134,23.128h-66.304c-3.156,16.618-9.762,32.519-19.309,46.536
			l46.918,46.9c4.368,4.374,6.778,10.185,6.778,16.349s-2.405,11.97-6.772,16.349c-8.741,8.753-23.963,8.759-32.71,0.006
			l-46.917-46.912c-14.01,9.559-29.912,16.158-46.524,19.321v66.298C234.235,411.842,223.865,422.213,211.114,422.213z"/>
	</g>
</g>
<g>
</g>
<g>
</g>
<g>
</g>
<g>
</g>
<g>
</g>
<g>
</g>
<g>
</g>
<g>
</g>
<g>
</g>
<g>
</g>
<g>
</g>
<g>
</g>
<g>
</g>
<g>
</g>
<g>
</g>
</svg>
